<svg xmlns="http://www.w3.org/2000/svg" version="1.1" xmlns:xlink="http://www.w3.org/1999/xlink" xmlns:svgjs="http://svgjs.dev/svgjs" width="1000" height="999" viewBox="0 0 1000 999"><g transform="matrix(1,0,0,1,-0.215743440233382,-0.21552769679306039)"><svg viewBox="0 0 343 343" data-background-color="#ffffff" preserveAspectRatio="xMidYMid meet" height="999" width="1000" xmlns="http://www.w3.org/2000/svg" xmlns:xlink="http://www.w3.org/1999/xlink"><g id="tight-bounds" transform="matrix(1,0,0,1,0.0740000000000407,0.07400000000001228)"><svg viewBox="0 0 342.85155851775386 342.85155851775386" height="342.85155851775386" width="342.85155851775386"><g><svg></svg></g><g><svg viewBox="0 0 342.85155851775386 342.85155851775386" height="342.85155851775386" width="342.85155851775386"><g><path d="M0 171.426c0-94.676 76.75-171.426 171.426-171.426 94.676 0 171.426 76.75 171.426 171.426 0 94.676-76.75 171.426-171.426 171.426-94.676 0-171.426-76.75-171.426-171.426zM171.426 338.42c92.228 0 166.994-74.766 166.994-166.994 0-92.228-74.766-166.994-166.994-166.995-92.228 0-166.994 74.766-166.995 166.995 0 92.228 74.766 166.994 166.995 166.994z" data-fill-palette-color="tertiary" fill="#0063db" stroke="transparent"></path><ellipse rx="164.56874808852186" ry="164.56874808852186" cx="171.42577925887693" cy="171.42577925887693" fill="#0063db" stroke="transparent" stroke-width="0" fill-opacity="1" data-fill-palette-color="tertiary"></ellipse></g><g transform="matrix(1,0,0,1,64.84655864529837,107.10163115899726)"><svg viewBox="0 0 213.1584412271571 128.64829619975933" height="128.64829619975933" width="213.1584412271571"><g><svg viewBox="0 0 213.1584412271571 128.64829619975933" height="128.64829619975933" width="213.1584412271571"><g><svg viewBox="0 0 213.1584412271571 128.64829619975933" height="128.64829619975933" width="213.1584412271571"><g transform="matrix(1,0,0,1,0,79.50980816512651)"><svg viewBox="0 0 213.1584412271571 49.1384880346328" height="49.1384880346328" width="213.1584412271571"><g><svg viewBox="0 0 213.1584412271571 49.1384880346328" height="49.1384880346328" width="213.1584412271571"><g><svg viewBox="0 0 213.1584412271571 49.1384880346328" height="49.1384880346328" width="213.1584412271571"><g transform="matrix(1,0,0,1,0,0)"><svg width="213.1584412271571" viewBox="0.4000000059604645 -35.70000076293945 157.88999938964844 36.400001525878906" height="49.1384880346328" data-palette-color="#ffffff"><path d="M21.75 0L18.95-9.5 8.1-9.5 5.3 0 0.4 0 11.15-35 15.85-35 26.6 0 21.75 0ZM9.35-13.75L17.7-13.75 13.5-27.95 9.35-13.75ZM29.1-13.4L29.1-17.7 42.45-17.7 42.45-13.4 29.1-13.4ZM56.15 0.7Q53.7 0.7 51.02 0.13 48.34-0.45 46.65-1.25L46.65-1.25 47.3-6.25Q49.3-5 51.75-4.23 54.2-3.45 56.59-3.45L56.59-3.45Q59.7-3.45 61.45-4.73 63.2-6 63.2-8.45L63.2-8.45Q63.2-10.2 62.37-11.45 61.55-12.7 60-13.68 58.45-14.65 55.65-15.9L55.65-15.9Q52.34-17.4 50.42-18.65 48.5-19.9 47.34-21.75 46.2-23.6 46.2-26.35L46.2-26.35Q46.2-29.15 47.65-31.28 49.09-33.4 51.72-34.55 54.34-35.7 57.7-35.7L57.7-35.7Q60.25-35.7 62.52-35.15 64.8-34.6 66.4-33.8L66.4-33.8 65.9-29.1Q61.75-31.55 57.45-31.55L57.45-31.55Q54.55-31.55 52.9-30.35 51.25-29.15 51.25-26.65L51.25-26.65Q51.25-24.95 52.12-23.83 53-22.7 54.55-21.83 56.09-20.95 59.25-19.5L59.25-19.5Q63.95-17.4 66.09-14.98 68.25-12.55 68.25-8.9L68.25-8.9Q68.25-4.45 65-1.88 61.75 0.7 56.15 0.7L56.15 0.7ZM72.79 0L72.79-35 77.34-35 77.34-20.55 93.44-20.55 93.44-35 97.99-35 97.99 0 93.44 0 93.44-16.1 77.34-16.1 77.34 0 72.79 0ZM117.64 0.7Q113.34 0.7 109.97-1.55 106.59-3.8 104.69-7.93 102.79-12.05 102.79-17.5L102.79-17.5Q102.79-22.95 104.69-27.08 106.59-31.2 109.97-33.45 113.34-35.7 117.64-35.7L117.64-35.7Q121.94-35.7 125.29-33.45 128.64-31.2 130.54-27.08 132.44-22.95 132.44-17.5L132.44-17.5Q132.44-12.05 130.54-7.93 128.64-3.8 125.29-1.55 121.94 0.7 117.64 0.7L117.64 0.7ZM117.64-3.85Q122.44-3.85 125.02-7.68 127.59-11.5 127.59-17.5L127.59-17.5Q127.59-23.5 125.02-27.33 122.44-31.15 117.64-31.15L117.64-31.15Q112.84-31.15 110.24-27.33 107.64-23.5 107.64-17.5L107.64-17.5Q107.64-11.5 110.24-7.68 112.84-3.85 117.64-3.85L117.64-3.85ZM137.64 0L137.64-35 146.64-35Q152.14-35 155.21-32.1 158.29-29.2 158.29-23.65L158.29-23.65Q158.29-18.1 155.21-15.18 152.14-12.25 146.64-12.25L146.64-12.25 142.24-12.25 142.24 0 137.64 0ZM142.24-16.45L146.24-16.45Q153.54-16.45 153.54-23.65L153.54-23.65Q153.54-30.85 146.24-30.85L146.24-30.85 142.24-30.85 142.24-16.45Z" opacity="1" transform="matrix(1,0,0,1,0,0)" fill="#ffffff" class="undefined-text-0" data-fill-palette-color="quaternary" id="text-0"></path></svg></g></svg></g></svg></g></svg></g><g transform="matrix(1,0,0,1,67.80068508006501,0)"><svg viewBox="0 0 77.5570710670271 67.90939046386254" height="67.90939046386254" width="77.5570710670271"><g><svg xmlns="http://www.w3.org/2000/svg" xmlns:xlink="http://www.w3.org/1999/xlink" version="1.1" x="0" y="0" viewBox="7.279999732971191 10.020000457763672 85.43802642822266 74.80999755859375" enable-background="new 0 0 100 100" xml:space="preserve" height="67.90939046386254" width="77.5570710670271" class="icon-icon-0" data-fill-palette-color="quaternary" id="icon-0"><path d="M57.33 82.53v0.64h14v-0.64H57.33zM92.42 32.16L78.79 10.71c-0.13-0.41-0.521-0.69-0.96-0.69H22.17c-0.44 0-0.8 0.28-0.93 0.71L7.72 32.1c-0.2 0.13-0.44 1.88-0.44 1.88 0 8.37 8.78 3.9 12.25 3.9 0.6 0 0.73 0.95 0.73 4.39l0.01-7.31 0.06 25.89c0.28 10 1.19 3 4.17 2.99-0.62-1.33 0.01-15.78-0.07-17.31H24.4v-9.27c0.83 1.45 2.68 2.64 4.7 2.64h0.01c0.65 0 10.968 0 11.64 0 1.75 0 3.26-2.07 4.01-3.25 0.75 1.18 1.89 2.29 3.27 2.85 0.62 0.26 1.28 0.4 1.98 0.4 0.7 0 1.36-0.14 1.98-0.4 1.39-0.56 2.539-1.66 3.27-2.85 0.75 1.18 1.615 3.25 3.865 3.25 0.672 0 10.945-0.05 11.375-0.02 0.01 0 0.01 0 0.01 0 0.131 0.02 0.25 0.02 0.381 0.02 2.021 0 3.909-1.19 4.729-2.64v9.271h-0.149c-0.08 1.489 1.561 2.92 0.979 4.22 2.64-0.01 2.46 9.99 3.05 9.99h0.109l0.131-18.47c0-2.94 1.148-4.37 1.74-4.37 3.459 0 11.238 4.45 11.238-3.92C92.721 33.98 92.55 32.27 92.42 32.16zM12.8 32.88l11.24-19.21h4.73l-7.83 19.21H12.8zM40.94 32.88H25.8l7.24-19.21h9.73L40.94 32.88zM45.8 32.88l1.24-19.21h5.729l1.17 19.21H45.8zM58.8 32.88l-1.76-19.21h9.729l7.17 19.21H58.8zM78.8 32.88l-7.76-19.21h4.729l11.17 19.21H78.8zM57.33 83.17h14v-0.64h-14V83.17z" fill="#ffffff" data-fill-palette-color="quaternary"></path><path d="M30.93 39.56" fill="#ffffff" data-fill-palette-color="quaternary"></path><path d="M50.01 39.9c-0.7 0-1.36-0.14-1.98-0.4h3.96C51.37 39.76 50.71 39.9 50.01 39.9z" fill="#ffffff" data-fill-palette-color="quaternary"></path><path d="M79.5 46.5v26.33c0 6.63-5.37 12-12 12H32.17c-6.63 0-12-4.331-12-12V36.5c0 9.48 0.03 8.96 0.1 8.46 0.39-3.04 0.91 19.28 3.13 17.39l1-15.819 0.03 10c0.08 1.528 0.45 12.979 1.07 14.31 1.89 4.13 6.06 6.99 10.9 6.99h27.1c4.87 0 9.07-2.9 10.95-7.08 0.579-1.3 0.938-2.73 1.021-4.22l0.149-20v-3.87C78.01 44.86 79.5 43 79.5 46.5z" fill="#ffffff" data-fill-palette-color="quaternary"></path><path d="M57.125 77.232c0 3.279-2.658 5.938-5.938 5.938l0 0c-3.279 0-5.938-2.658-5.938-5.938v-10.13c0-3.279 2.658-5.938 5.938-5.938l0 0c3.279 0 5.938 2.658 5.938 5.938V77.232z" fill="#ffffff" data-fill-palette-color="quaternary"></path><path d="M71.75 46.625c0 1.174-0.951 2.125-2.125 2.125h-39.25c-1.174 0-2.125-0.951-2.125-2.125l0 0c0-1.174 0.951-2.125 2.125-2.125h39.25C70.799 44.5 71.75 45.451 71.75 46.625L71.75 46.625z" fill="#ffffff" data-fill-palette-color="quaternary"></path><path d="M71.75 53.625c0 1.174-0.951 2.125-2.125 2.125h-39.25c-1.174 0-2.125-0.951-2.125-2.125l0 0c0-1.174 0.951-2.125 2.125-2.125h39.25C70.799 51.5 71.75 52.451 71.75 53.625L71.75 53.625z" fill="#ffffff" data-fill-palette-color="quaternary"></path></svg></g></svg></g><g></g></svg></g></svg></g></svg></g></svg></g><defs></defs></svg><rect width="342.85155851775386" height="342.85155851775386" fill="none" stroke="none" visibility="hidden"></rect></g></svg></g></svg>